<svg xmlns="http://www.w3.org/2000/svg" width="96.351" height="90.717" viewBox="0 0 96.351 90.717">
  <path id="Icon_awesome-pinterest" data-name="Icon awesome-pinterest" d="M96.351,45.921c0,25.057-21.562,45.359-48.175,45.359a50.735,50.735,0,0,1-14.258-2.03c1.962-3.018,4.9-7.956,5.983-11.888.583-2.122,2.992-10.791,2.992-10.791,1.573,2.817,6.158,5.213,11.034,5.213,14.53,0,25-12.583,25-28.221,0-14.979-13-26.191-29.7-26.191-20.785,0-31.838,13.132-31.838,27.453,0,6.657,3.769,14.943,9.771,17.576.913.4,1.4.219,1.612-.6.155-.622.971-3.713,1.34-5.139a1.3,1.3,0,0,0-.33-1.3,17.178,17.178,0,0,1-3.555-10.352c0-10,8.042-19.68,21.757-19.68,11.83,0,20.125,7.59,20.125,18.454,0,12.272-6.585,20.777-15.152,20.777-4.72,0-8.275-3.676-7.129-8.194,1.36-5.4,3.982-11.212,3.982-15.107,0-3.475-1.981-6.383-6.1-6.383-4.837,0-8.722,4.7-8.722,11.01a15.561,15.561,0,0,0,1.437,6.731S31.664,71.6,30.789,75.148c-.971,3.914-.583,9.438-.175,13.022C12.7,81.568,0,65.144,0,45.921,0,20.864,21.562.563,48.175.563S96.351,20.864,96.351,45.921Z" transform="translate(0 -0.563)"/>
</svg>
